HIERARCHY
ROOT Hips
{
	OFFSET 0.000000 0.000000 0.000000
	CHANNELS 6 Xposition Yposition Zposition Xrotation Yrotation Zrotation
	JOINT LeftUpLeg_virtual
	{
		OFFSET 0.000000 0.000000 0.000000
		CHANNELS 3 Xrotation Yrotation Zrotation
		JOINT LeftUpLeg
		{
			OFFSET 13.026900 -6.336304 -1.092800
			CHANNELS 3 Xrotation Yrotation Zrotation
			JOINT LeftLeg
			{
				OFFSET 0.524474 -46.096886 9.782700
				CHANNELS 3 Xrotation Yrotation Zrotation
				JOINT LeftFoot
				{
					OFFSET -0.524474 -53.427422 -12.948200
					CHANNELS 3 Xrotation Yrotation Zrotation
					JOINT LeftToeBase
					{
						OFFSET 0.192200 -14.009700 16.364100
						CHANNELS 3 Xrotation Yrotation Zrotation
						JOINT LeftToe_End
						{
							OFFSET -1.784700 -0.561700 9.474800
							CHANNELS 3 Xrotation Yrotation Zrotation
							End Site
							{
								OFFSET 0 0 0
							}
						}
					}
				}
			}
		}
	}
	JOINT RightUpLeg_virtual
	{
		OFFSET 0.000000 0.000000 0.000000
		CHANNELS 3 Xrotation Yrotation Zrotation
		JOINT RightUpLeg
		{
			OFFSET -12.883000 -6.336304 -1.092800
			CHANNELS 3 Xrotation Yrotation Zrotation
			JOINT RightLeg
			{
				OFFSET -0.524587 -46.096825 9.782800
				CHANNELS 3 Xrotation Yrotation Zrotation
				JOINT RightFoot
				{
					OFFSET 0.524587 -53.427383 -12.948300
					CHANNELS 3 Xrotation Yrotation Zrotation
					JOINT RightToeBase
					{
						OFFSET -0.192200 -14.009700 16.364100
						CHANNELS 3 Xrotation Yrotation Zrotation
						JOINT RightToe_End
						{
							OFFSET 1.784700 -0.561700 9.474800
							CHANNELS 3 Xrotation Yrotation Zrotation
							End Site
							{
								OFFSET 0 0 0
							}
						}
					}
				}
			}
		}
	}
	JOINT Spine_virtual
	{
		OFFSET 0.000000 0.000000 0.000000
		CHANNELS 3 Xrotation Yrotation Zrotation
		JOINT Spine
		{
			OFFSET 0.072000 7.257294 -0.789700
			CHANNELS 3 Xrotation Yrotation Zrotation
			JOINT Spine1
			{
				OFFSET 0.000000 12.508769 -0.658067
				CHANNELS 3 Xrotation Yrotation Zrotation
				JOINT Spine1_split
				{
					OFFSET 0.000000 12.508769 -0.658067
					CHANNELS 3 Xrotation Yrotation Zrotation
					JOINT Spine2
					{
						OFFSET 0.000000 12.508769 -0.658067
						CHANNELS 3 Xrotation Yrotation Zrotation
						JOINT Neck_virtual
						{
							OFFSET 0.000000 0.000000 0.000000
							CHANNELS 3 Xrotation Yrotation Zrotation
							JOINT Neck
							{
								OFFSET 0.000000 14.033295 7.520400
								CHANNELS 3 Xrotation Yrotation Zrotation
								JOINT Head
								{
									OFFSET 0.000000 8.198502 5.703100
									CHANNELS 3 Xrotation Yrotation Zrotation
									JOINT HeadTop_End
									{
										OFFSET 0.000000 17.760803 13.332701
										CHANNELS 3 Xrotation Yrotation Zrotation
										End Site
										{
											OFFSET 0 0 0
										}
									}
								}
							}
						}
						JOINT LeftShoulder_virtual
						{
							OFFSET 0.000000 0.000000 0.000000
							CHANNELS 3 Xrotation Yrotation Zrotation
							JOINT LeftShoulder
							{
								OFFSET 6.292450 5.785301 -0.669000
								CHANNELS 3 Xrotation Yrotation Zrotation
								JOINT LeftShoulder_split
								{
									OFFSET 6.292450 5.785301 -0.669000
									CHANNELS 3 Xrotation Yrotation Zrotation
									JOINT LeftArm
									{
										OFFSET 13.907140 -6.093903 1.965100
										CHANNELS 3 Xrotation Yrotation Zrotation
										JOINT LeftForeArm
										{
											OFFSET 34.140198 0.000000 0.000000
											CHANNELS 3 Xrotation Yrotation Zrotation
											JOINT LeftHand
											{
												OFFSET 40.960209 0.000000 0.000000
												CHANNELS 3 Xrotation Yrotation Zrotation
												End Site
												{
													OFFSET 0 0 0
												}
											}
										}
									}
								}
							}
						}
						JOINT RightShoulder_virtual
						{
							OFFSET 0.000000 0.000000 0.000000
							CHANNELS 3 Xrotation Yrotation Zrotation
							JOINT RightShoulder
							{
								OFFSET -6.292450 5.785301 -0.669000
								CHANNELS 3 Xrotation Yrotation Zrotation
								JOINT RightShoulder_split
								{
									OFFSET -6.292450 5.785301 -0.669000
									CHANNELS 3 Xrotation Yrotation Zrotation
									JOINT RightArm
									{
										OFFSET -13.907140 -6.093903 1.965100
										CHANNELS 3 Xrotation Yrotation Zrotation
										JOINT RightForeArm
										{
											OFFSET -34.140198 0.000000 0.000000
											CHANNELS 3 Xrotation Yrotation Zrotation
											JOINT RightHand
											{
												OFFSET -40.960209 0.000000 0.000000
												CHANNELS 3 Xrotation Yrotation Zrotation
												End Site
												{
													OFFSET 0 0 0
												}
											}
										}
									}
								}
							}
						}
					}
				}
			}
		}
	}
}
MOTION
Frames: 11
Frame Time: 0.03333333
-16.744280 21.043343 -92.155579 0.000000 0.000000 0.000000 -90.975654 17.614986 -3.751958 -56.254770 14.788609 35.518298 61.476395 9.374183 -0.329495 32.051745 5.027788 -9.806112 -3.053206 0.013315 -0.720409 0.000000 0.000000 0.000000 -92.735377 22.218991 0.047696 -60.153818 0.947421 -34.486093 95.784298 -0.459402 -1.758535 30.827919 0.136999 11.675927 2.123866 2.470840 1.063173 0.000000 0.000000 0.000000 -90.548255 17.916346 -3.822883 57.589443 11.158165 -1.365053 18.431733 4.178233 0.458508 0.283378 -3.459820 1.076247 0.000000 0.000000 0.000000 21.664713 4.192156 0.164292 11.657407 -2.172119 -3.153444 30.168290 0.967481 -0.118260 0.000000 0.000000 0.000000 20.147733 3.588589 -0.182535 1.363388 -4.757209 -10.166944 -1.551270 -1.941879 -5.927939 -35.683309 -19.374562 -35.756344 -7.320609 -56.851991 -1.959056 0.000000 0.000000 0.000000 19.569887 3.352259 0.378953 0.138619 11.925992 16.812630 0.024933 0.518013 -3.883541 -26.738358 -7.298826 35.487081 1.516060 45.997537 -2.212510 0.000000 0.000000 0.000000 
-17.331224 20.608177 -94.974350 0.000000 0.000000 0.000000 -98.502946 17.184104 -4.285961 -49.634937 11.681809 34.581193 61.254666 7.685594 0.497421 30.606378 3.658850 -8.428186 -2.883892 0.191137 -1.097312 0.000000 0.000000 0.000000 -100.224406 22.808698 1.417826 -48.948243 2.843208 -28.298285 93.777685 0.496270 -4.927771 28.559553 0.406300 17.621859 -0.393575 2.105949 0.871927 0.000000 0.000000 0.000000 -98.993811 18.261496 -3.720410 55.416716 11.376867 0.416128 19.370311 4.265039 0.553285 0.454895 -3.532911 1.246966 0.000000 0.000000 0.000000 21.780630 4.298943 0.063045 11.811051 -2.914688 -2.987421 31.961115 0.961937 -1.839676 0.000000 0.000000 0.000000 20.563367 3.704376 0.102692 1.136517 -4.281528 -8.705005 -0.878994 -1.935150 -5.785396 -30.458959 -19.864188 -32.927235 -9.101625 -59.504813 -3.410620 0.000000 0.000000 0.000000 20.082780 3.540716 0.549699 -0.013458 12.798719 16.235261 -0.633869 2.432609 -3.773440 -16.043961 -6.405526 35.761218 1.423201 41.432214 -1.470183 0.000000 0.000000 0.000000 
-17.663902 20.376434 -97.465179 0.000000 0.000000 0.000000 -105.290276 16.936530 -4.507091 -43.191152 8.320052 34.327694 61.128793 5.543542 1.200489 29.750672 1.709257 -7.592539 -2.238323 0.387559 -1.438637 0.000000 0.000000 0.000000 -106.895336 23.359008 3.052170 -38.923199 5.487710 -22.887231 92.179202 0.641912 -7.331599 25.779666 -0.939625 20.293706 -1.223256 1.714974 0.806872 0.000000 0.000000 0.000000 -106.613037 18.873776 -3.263605 53.022352 10.211942 2.209264 19.311545 3.886832 0.607615 1.691312 -3.107715 1.817876 0.000000 0.000000 0.000000 21.109478 3.925898 0.010511 11.567591 -3.522407 -2.390400 32.081528 0.946059 -3.686464 0.000000 0.000000 0.000000 19.908557 3.281659 0.353833 0.753156 -4.357630 -7.652640 -0.211222 -1.882531 -4.942483 -24.742003 -20.103794 -31.314877 -9.940801 -59.895472 -4.242738 0.000000 0.000000 0.000000 19.618132 3.234621 0.725253 0.195169 13.517645 15.283061 -1.648854 3.881851 -3.509727 -4.952215 -3.831898 35.636751 1.484583 34.516952 -0.972029 0.000000 0.000000 0.000000 
-17.988525 20.609642 -100.224960 0.000000 0.000000 0.000000 -110.997377 17.106631 -4.065892 -36.949162 5.350826 34.965600 60.510251 3.524845 1.882543 28.920493 -0.363052 -7.515925 -1.555054 0.552747 -1.616837 0.000000 0.000000 0.000000 -112.782215 23.749271 4.698381 -31.032432 7.908899 -18.670754 90.914613 -0.043502 -8.587483 23.288302 -3.286361 19.450323 0.337978 1.420434 0.819438 0.000000 0.000000 0.000000 -112.977893 19.597179 -2.322255 50.345529 7.592801 3.607391 18.063583 2.953391 0.535147 2.286590 -2.438394 2.310082 0.000000 0.000000 0.000000 19.530202 3.007158 -0.064323 10.993989 -3.969805 -1.377193 30.957686 1.477004 -5.876328 0.000000 0.000000 0.000000 18.150359 2.296143 0.434502 0.330724 -4.500882 -7.125758 0.366247 -1.881310 -3.541287 -17.851534 -20.192450 -30.646960 -9.285916 -57.765621 -3.960354 0.000000 0.000000 0.000000 18.082347 2.298686 0.792619 0.732337 13.525250 14.076350 -2.168111 4.249354 -3.228857 5.591980 -0.171261 35.639026 1.834329 30.265347 -0.896019 0.000000 0.000000 0.000000 
-18.493122 21.252106 -103.130081 0.000000 0.000000 0.000000 -115.447136 17.642529 -3.031130 -31.230114 3.316676 36.420549 59.228464 1.992229 2.499013 27.429650 -2.168059 -8.163253 -1.195154 0.630622 -1.533984 0.000000 0.000000 0.000000 -117.803087 24.088884 6.418788 -25.926669 9.773687 -15.709357 90.484891 -0.684427 -9.194188 22.166093 -4.677661 17.304610 2.321801 1.294474 0.719893 0.000000 0.000000 0.000000 -117.869435 20.197455 -1.013163 47.415416 3.731554 4.287573 15.784690 1.514179 0.276274 2.400562 -1.625062 2.345097 0.000000 0.000000 0.000000 17.111135 1.551754 -0.207919 9.676939 -4.167473 -0.335209 28.882490 2.692644 -8.416916 0.000000 0.000000 0.000000 15.579083 0.817230 0.307169 -0.010962 -4.462348 -6.738714 0.246189 -1.594028 -2.517481 -9.157738 -20.094768 -30.063542 -7.918806 -53.427563 -3.166350 0.000000 0.000000 0.000000 15.582984 0.742424 0.674782 1.449821 12.431253 12.793926 -1.957089 3.410753 -3.064963 15.286281 3.649672 35.996944 2.379832 32.496172 -1.236237 0.000000 0.000000 0.000000 
-19.305616 22.016502 -106.137390 0.000000 0.000000 0.000000 -118.811837 18.182722 -1.809541 -26.507413 2.166265 38.276083 57.665368 1.196358 2.955421 25.055291 -3.383796 -9.417486 -1.293909 0.636130 -1.237209 0.000000 0.000000 0.000000 -121.963191 24.126875 7.792925 -23.765934 11.387797 -13.550308 91.386224 -0.834479 -9.656043 22.905548 -4.288026 15.796131 2.955667 1.262103 0.448250 0.000000 0.000000 0.000000 -121.480884 20.293554 0.302971 44.552900 -0.872273 4.236222 12.891985 -0.260363 -0.184302 1.603412 -1.135311 1.819472 0.000000 0.000000 0.000000 14.145914 -0.220294 -0.433066 7.517328 -4.176834 0.534603 26.310565 4.735044 -11.164186 0.000000 0.000000 0.000000 12.663449 -0.982618 -0.032248 -0.197052 -3.778670 -6.252226 -0.428347 -1.371550 -2.082265 1.191606 -19.578884 -28.603350 -6.607344 -48.370669 -2.435578 0.000000 0.000000 0.000000 12.622392 -1.202825 0.320938 2.115562 10.247517 11.192215 -0.869351 1.796362 -2.797912 23.688203 6.595533 36.298023 3.171989 41.392941 -2.101358 0.000000 0.000000 0.000000 
-20.461430 22.287628 -109.455414 0.000000 0.000000 0.000000 -121.424426 18.588966 -0.364478 -23.351944 1.727346 40.309307 56.295106 1.159245 3.206988 21.958718 -3.797107 -10.938821 -1.398230 0.606593 -0.962464 0.000000 0.000000 0.000000 -125.159788 23.758328 8.747104 -24.205092 13.085685 -11.818806 93.440560 -0.410910 -10.235733 24.329451 -2.577507 15.068034 3.068883 1.240047 0.161514 0.000000 0.000000 0.000000 -123.840386 19.911967 1.338622 41.958279 -5.549029 3.562711 9.984970 -2.142331 -0.721710 0.221450 -0.706239 1.162920 0.000000 0.000000 0.000000 11.083559 -2.051243 -0.749267 4.465753 -4.116610 0.896138 23.625792 7.597920 -13.969624 0.000000 0.000000 0.000000 9.966510 -2.745079 -0.480107 -0.174902 -2.354266 -5.474497 -1.545070 -1.313112 -2.166562 12.399040 -18.332708 -25.756164 -5.635250 -44.154274 -1.865668 0.000000 0.000000 0.000000 9.672911 -3.198582 -0.202835 2.546153 7.371264 9.390445 1.073879 0.319011 -2.538188 30.464160 8.242943 36.512555 4.455790 53.812841 -3.610996 0.000000 0.000000 0.000000 
-21.801504 21.792976 -112.576889 0.000000 0.000000 0.000000 -123.370975 18.612312 0.962232 -21.858166 1.614102 42.319353 55.648710 1.587685 3.251023 18.621812 -3.605733 -12.644537 -0.993040 0.573441 -0.876602 0.000000 0.000000 0.000000 -127.219226 23.068773 9.387586 -26.415851 14.957474 -10.222777 95.976357 0.188312 -10.938125 24.542876 -0.594461 13.997923 4.305735 1.215486 0.073973 0.000000 0.000000 0.000000 -125.195455 19.121415 1.876873 39.893113 -9.739840 2.496674 7.542090 -3.830388 -1.186137 -0.507203 -0.248894 0.865267 0.000000 0.000000 0.000000 8.251900 -3.662139 -1.037771 0.612023 -3.967073 0.594032 21.024958 10.931657 -16.638324 0.000000 0.000000 0.000000 7.852728 -4.271387 -0.899246 0.020184 -0.478614 -4.295563 -2.736093 -1.403487 -2.895336 22.804065 -15.895554 -22.028839 -4.938486 -41.992245 -1.378093 0.000000 0.000000 0.000000 7.249051 -4.840018 -0.732169 2.619330 4.511036 7.745068 3.051764 -0.423318 -1.905666 35.421037 8.905994 36.453741 5.906576 63.406845 -5.399039 0.000000 0.000000 0.000000 
-23.001566 20.536621 -115.623367 0.000000 0.000000 0.000000 -124.598565 18.223418 2.061512 -21.884601 1.502488 44.120239 55.681000 2.265246 3.127099 15.712872 -3.057727 -14.550202 0.174110 0.597762 -1.101751 0.000000 0.000000 0.000000 -128.235190 22.178702 9.835188 -29.557002 16.731505 -8.817901 98.600051 0.393824 -11.319296 23.117358 0.546930 11.638193 6.635272 1.164351 0.340079 0.000000 0.000000 0.000000 -125.738168 18.102134 1.995225 38.441172 -13.032836 1.290570 5.845476 -5.105632 -1.471368 -0.881841 0.103013 0.709932 0.000000 0.000000 0.000000 5.975321 -4.858385 -1.225805 -3.401780 -3.856729 -0.262408 18.737027 14.577478 -19.043751 0.000000 0.000000 0.000000 6.322017 -5.331132 -1.236396 0.311259 1.685024 -3.135731 -3.654018 -1.978389 -3.567203 31.283410 -12.520730 -18.117818 -3.988200 -42.291377 -0.681756 0.000000 0.000000 0.000000 5.602858 -5.886321 -1.139402 2.333381 2.139221 6.679233 4.740897 0.044636 -1.194884 38.064419 9.209935 36.016045 5.750034 65.553430 -5.623328 0.000000 0.000000 0.000000 
-23.914705 18.908195 -118.390778 0.000000 0.000000 0.000000 -124.930184 17.557278 2.976919 -22.930275 1.375239 45.589846 56.004358 3.040213 2.883180 13.516374 -2.348052 -16.462267 2.144188 0.639611 -1.633100 0.000000 0.000000 0.000000 -128.400644 21.220117 10.306773 -32.816668 17.749152 -8.062679 100.762885 0.240236 -11.188827 21.410705 0.863219 8.539352 8.771635 1.112535 0.792747 0.000000 0.000000 0.000000 -125.556977 17.210226 2.046403 37.402010 -15.332800 -0.048901 4.856904 -5.857478 -1.576249 -0.629831 0.503412 1.036665 0.000000 0.000000 0.000000 4.309857 -5.574755 -1.287638 -7.094460 -3.779119 -1.594222 16.908623 18.077617 -21.084230 0.000000 0.000000 0.000000 5.251320 -5.855781 -1.501682 0.654178 3.616338 -2.340494 -4.542280 -2.427370 -4.147458 37.279217 -8.806942 -14.673721 -2.516241 -43.895782 0.377856 0.000000 0.000000 0.000000 4.650823 -6.261995 -1.355653 1.860310 0.593420 6.694737 5.572453 1.170917 -0.662865 38.299415 9.891341 35.448098 3.636325 59.819227 -3.872304 0.000000 0.000000 0.000000 
-24.450573 17.520676 -120.553223 0.000000 0.000000 0.000000 -124.299621 16.723664 3.488346 -24.397226 1.433620 46.471385 56.188531 3.904065 2.556435 12.131318 -1.662788 -18.062247 4.401032 0.656457 -2.278949 0.000000 0.000000 0.000000 -128.013823 20.349662 10.777848 -35.662815 17.511147 -8.197847 101.813054 0.081114 -10.821163 20.623317 0.912511 6.049829 9.189347 1.044014 1.151722 0.000000 0.000000 0.000000 -125.045382 16.482343 2.240852 36.522879 -16.781172 -1.583420 4.265765 -6.097992 -1.638870 0.633726 0.382813 1.160136 0.000000 0.000000 0.000000 3.234295 -5.853813 -1.268270 -9.922435 -3.627617 -2.893604 15.473152 21.010171 -22.680577 0.000000 0.000000 0.000000 4.254681 -5.948953 -1.791025 0.966533 5.114847 -2.179084 -5.175097 -2.648210 -4.570643 40.736758 -5.428860 -11.906337 -0.548187 -45.068283 1.679194 0.000000 0.000000 0.000000 4.162011 -6.119767 -1.431579 1.322724 -0.390290 7.769891 5.510724 2.324260 -0.480329 36.387645 11.230464 34.916586 1.711561 49.061652 -2.186895 0.000000 0.000000 0.000000 
